<svg width="9" height="18" viewBox="0 0 9 18" fill="none" xmlns="http://www.w3.org/2000/svg">
<path d="M0.287397 9.58679H2.24037V17.7097C2.24037 17.8701 2.36898 18 2.52773 18H5.83908C5.99783 18 6.12645 17.8701 6.12645 17.7097V9.62508H8.37158C8.51756 9.62508 8.6404 9.51441 8.65707 9.36791L8.99805 6.37748C9.00741 6.29522 8.98163 6.21281 8.92713 6.15108C8.8726 6.08931 8.79455 6.05394 8.71264 6.05394H6.12658V4.17937C6.12658 3.61431 6.42773 3.32775 7.0218 3.32775C7.10646 3.32775 8.71264 3.32775 8.71264 3.32775C8.87139 3.32775 9 3.19774 9 3.03743V0.292465C9 0.132082 8.87139 0.00214453 8.71264 0.00214453H6.38238C6.36596 0.00133594 6.32946 0 6.27566 0C5.87134 0 4.46595 0.0801913 3.35579 1.11199C2.12574 2.25541 2.29674 3.62443 2.3376 3.86181V6.05387H0.287363C0.128614 6.05387 0 6.18381 0 6.34419V9.29644C3.47981e-05 9.45679 0.128648 9.58679 0.287397 9.58679Z" fill="#385C8E"/>
</svg>
