<svg width="18" height="18" viewBox="0 0 18 18" fill="none" xmlns="http://www.w3.org/2000/svg">
<path d="M17.855 7.33397C17.935 7.33397 17.9999 7.39884 17.9999 7.47885V8.99995C17.9999 9.56926 17.947 10.1259 17.8456 10.6659C17.061 14.8604 13.3658 18.0302 8.93648 17.9996C3.9665 17.9654 -0.0109811 13.9497 2.27767e-05 8.97966C0.0109563 4.01855 4.03625 0 8.99994 0C11.4318 0 13.6382 0.964752 15.2582 2.53187C15.3167 2.58843 15.3182 2.68167 15.2607 2.73918L13.1087 4.89112C13.0533 4.94653 12.9638 4.94797 12.907 4.89393C11.8903 3.92612 10.5146 3.33195 8.99994 3.33195C5.87207 3.33195 3.35331 5.83281 3.33208 8.96061C3.31074 12.1089 5.8566 14.6679 8.99994 14.6679C11.5503 14.6679 13.7074 12.9831 14.4187 10.6659H9.14481C9.0648 10.6659 8.99994 10.6011 8.99994 10.521V7.47882C8.99994 7.3988 9.0648 7.33394 9.14481 7.33394H17.855V7.33397Z" fill="#2196F3"/>
<path d="M17.855 7.33496H16.7685C16.8485 7.33496 16.9133 7.39982 16.9133 7.47984V9.00094C16.9133 9.57025 16.8605 10.1269 16.759 10.6669C16.0105 14.6684 12.6129 17.7374 8.45605 17.9846C8.6151 17.994 8.7752 17.9995 8.93643 18.0006C13.3657 18.0312 17.061 14.8613 17.8455 10.6669C17.947 10.1269 17.9998 9.57025 17.9998 9.00094V7.4798C17.9998 7.39982 17.935 7.33496 17.855 7.33496Z" fill="#1E88E5"/>
<path d="M3.85148 6.62628L1.11816 4.65136C2.6516 1.87786 5.60654 0 8.99973 0C11.4316 0 13.638 0.964752 15.258 2.53187C15.3165 2.58843 15.318 2.68167 15.2605 2.73918L13.1085 4.89112C13.0532 4.94642 12.9637 4.94814 12.9071 4.89421C11.8903 3.92623 10.5146 3.33198 8.99973 3.33198C6.71698 3.33198 4.74929 4.68141 3.85148 6.62628Z" fill="#F44336"/>
<path d="M3.0625 6.0562L3.85158 6.62633C4.67106 4.85116 6.38204 3.57267 8.41019 3.36297C8.42545 3.36132 8.44011 3.35931 8.45565 3.35784C8.27716 3.34089 8.09628 3.33203 7.91333 3.33203C5.85118 3.33203 4.05401 4.41916 3.0625 6.0562Z" fill="#E53935"/>
<path d="M14.1721 2.53187C14.2306 2.58843 14.2321 2.68167 14.1746 2.73922L12.4279 4.48588C12.5953 4.61314 12.7555 4.74927 12.9075 4.89397C12.9642 4.948 13.0538 4.94656 13.1092 4.89116L15.2611 2.73922C15.3186 2.68167 15.3171 2.58847 15.2586 2.53187C13.6387 0.964752 11.4322 0 9.00037 0C8.81787 0 8.63682 0.006082 8.45703 0.0168046C10.6733 0.148816 12.6737 1.08231 14.1721 2.53187Z" fill="#E53935"/>
<path d="M15.6017 15.1167C13.9582 16.8903 11.6084 18.0004 8.99968 18.0004C5.47613 18.0004 2.42557 15.9755 0.948242 13.0256L3.73875 11.1133C4.57614 13.1969 6.61624 14.6684 8.99968 14.6684C10.4954 14.6684 11.8558 14.0889 12.8684 13.1422L15.6017 15.1167Z" fill="#4CAF50"/>
<path d="M3.73888 11.1133L2.91602 11.6771C3.87173 13.4576 5.75114 14.6683 7.91327 14.6683C8.09612 14.6683 8.27686 14.6594 8.45527 14.6425C6.30903 14.4378 4.51168 13.0363 3.73888 11.1133Z" fill="#43A047"/>
<path d="M8.9999 18.0001C11.6086 18.0001 13.9584 16.89 15.6019 15.1165L14.9325 14.6328C13.3892 16.5534 11.0742 17.8275 8.45801 17.9837C8.6373 17.9944 8.81794 18.0001 8.9999 18.0001Z" fill="#43A047"/>
<path d="M3.33198 9.00094C3.33198 9.74772 3.47648 10.4609 3.73906 11.1139L0.94851 13.0261C0.341541 11.815 0 10.4478 0 9.00094C0 7.4237 0.40563 5.94131 1.11838 4.65234L3.8517 6.62727C3.51814 7.34906 3.33198 8.15346 3.33198 9.00094Z" fill="#FFC107"/>
<path d="M2.91683 11.6772L3.73969 11.1133C3.47711 10.4604 3.33262 9.74722 3.33262 9.00043C3.33262 8.15296 3.51877 7.34855 3.85233 6.62677L3.06325 6.05664C2.55085 6.90267 2.25347 7.89544 2.24623 8.96113C2.23955 9.94388 2.48307 10.8692 2.91683 11.6772Z" fill="#FFB300"/>
</svg>
