<svg width="647" height="602" viewBox="0 0 647 602" fill="none" xmlns="http://www.w3.org/2000/svg">
<path opacity="0.1" d="M323.5 602C502.164 602 647 588.569 647 572C647 555.431 502.164 542 323.5 542C144.836 542 0 555.431 0 572C0 588.569 144.836 602 323.5 602Z" fill="#3A36DB"/>
<path d="M509.787 268.44L502.52 269.553L510.929 324.46L518.196 323.347L509.787 268.44Z" fill="#99B2C6"/>
<path d="M509.782 268.479L502.594 269.622L504.227 264.068L505.044 261.127L506.678 263.578L509.782 268.479Z" fill="#FF8C64"/>
<path d="M517.621 319.439L510.354 320.552L510.972 324.589L518.239 323.476L517.621 319.439Z" fill="#35252F"/>
<path d="M518.277 326.639L511.905 327.619C511.578 327.619 511.415 327.456 511.415 327.129L510.925 324.352L518.277 323.208L518.767 325.985C518.767 326.312 518.603 326.639 518.277 326.639Z" fill="#EF452F"/>
<path d="M506.676 263.578L504.226 264.068L505.042 261.127L506.676 263.578Z" fill="#35252F"/>
<path d="M510.373 320.555L517.641 319.442L517.195 316.536L509.928 317.649L510.373 320.555Z" fill="#F68407"/>
<path d="M504.718 272.072L510.926 312.752C510.926 313.079 511.253 313.242 511.579 313.242C511.906 313.242 512.07 312.915 512.07 312.589L505.861 271.909C505.861 271.582 505.535 271.419 505.208 271.419C504.881 271.419 504.718 271.746 504.718 272.072Z" fill="#99B2C6"/>
<path d="M507.657 271.583L513.865 312.263C513.865 312.589 514.192 312.753 514.519 312.753C514.846 312.753 515.009 312.426 515.009 312.099L508.801 271.42C508.801 271.093 508.474 270.93 508.147 270.93C507.821 270.93 507.657 271.256 507.657 271.583Z" fill="#99B2C6"/>
<path d="M522.928 268.63L515.576 268.654L515.757 324.201L523.109 324.177L522.928 268.63Z" fill="#03A89E"/>
<path d="M523.015 268.641L515.663 268.804L518.114 263.413L519.257 260.799L520.564 263.413L523.015 268.641Z" fill="#FF8C64"/>
<path d="M523.175 320.255L515.823 320.279L515.837 324.364L523.188 324.34L523.175 320.255Z" fill="#35252F"/>
<path d="M522.69 327.456H516.318C515.991 327.456 515.828 327.293 515.828 326.966V324.188H523.18V326.966C523.18 327.293 523.016 327.456 522.69 327.456Z" fill="#EF452F"/>
<path d="M520.566 263.415H518.115L519.259 260.801L520.566 263.415Z" fill="#35252F"/>
<path d="M515.821 320.282L523.173 320.258L523.163 317.317L515.812 317.341L515.821 320.282Z" fill="#3C7341"/>
<path d="M517.459 271.418L517.622 312.588C517.622 312.914 517.949 313.078 518.112 313.078C518.439 313.078 518.603 312.751 518.603 312.588L518.439 271.418C518.439 271.091 518.112 270.928 517.949 270.928C517.786 270.928 517.459 271.091 517.459 271.418Z" fill="#03A89E"/>
<path d="M520.401 271.42L520.565 312.589C520.565 312.916 520.891 313.08 521.055 313.08C521.382 313.08 521.545 312.753 521.545 312.589L521.382 271.42C521.382 271.093 521.055 270.93 520.891 270.93C520.565 270.93 520.401 271.093 520.401 271.42Z" fill="#03A89E"/>
<path d="M535.731 269.477L528.452 268.442L520.637 323.439L527.916 324.473L535.731 269.477Z" fill="#3A36DB"/>
<path d="M535.758 269.459L528.406 268.479L531.51 263.578L533.144 261.127L534.124 263.904L535.758 269.459Z" fill="#FF8C64"/>
<path d="M528.509 320.523L521.23 319.488L520.656 323.532L527.935 324.567L528.509 320.523Z" fill="#35252F"/>
<path d="M526.936 327.62L520.564 326.64C520.238 326.64 520.074 326.313 520.074 326.149L520.401 323.372L527.753 324.352L527.426 327.13C527.426 327.456 527.263 327.62 526.936 327.62Z" fill="#EF452F"/>
<path d="M534.125 263.904L531.511 263.578L533.144 261.127L534.125 263.904Z" fill="#35252F"/>
<path d="M521.181 319.372L528.46 320.406L528.874 317.495L521.595 316.46L521.181 319.372Z" fill="#1B48CA"/>
<path opacity="0.6" d="M529.875 271.42L524.157 312.099C524.157 312.426 524.321 312.753 524.647 312.753C524.974 312.753 525.301 312.589 525.301 312.263L531.019 271.583C531.019 271.256 530.856 270.93 530.529 270.93C530.202 270.93 529.875 271.093 529.875 271.42Z" fill="#3A36DB"/>
<path opacity="0.6" d="M532.655 271.91L526.937 312.589C526.937 312.916 527.1 313.243 527.427 313.243C527.753 313.243 528.08 313.079 528.08 312.752L533.798 272.073C533.798 271.746 533.635 271.419 533.308 271.419C532.981 271.256 532.818 271.583 532.655 271.91Z" fill="#3A36DB"/>
<path d="M538.21 290.698L537.72 293.639L537.393 296.416L536.903 300.501L536.577 303.115L535.923 307.362L535.596 309.976L535.106 314.06L534.78 316.674L534.289 320.922L533.963 323.536L533.309 327.784L532.982 330.234L532.656 332.521H503.739L503.412 330.234L503.085 327.784L502.595 323.536L502.269 320.922L501.778 316.674L501.452 314.06L500.798 309.976L500.471 307.362L499.981 303.115L499.655 300.501L499.165 296.416L498.838 293.639L498.348 290.698H538.21Z" fill="#FF69B4"/>
<path d="M537.719 293.639L537.393 296.416H499.164L498.837 293.639H537.719Z" fill="#FF2291"/>
<path d="M536.903 300.501L536.576 303.115H499.981L499.654 300.501H536.903Z" fill="#FF2291"/>
<path d="M535.922 307.36L535.596 309.974H500.797L500.471 307.36H535.922Z" fill="#FF2291"/>
<path d="M535.105 314.061L534.778 316.674H501.777L501.45 314.061H535.105Z" fill="#FF2291"/>
<path d="M534.288 320.923L533.962 323.537H502.594L502.268 320.923H534.288Z" fill="#FF2291"/>
<path d="M533.307 327.782L532.98 330.233H503.41L503.083 327.782H533.307Z" fill="#FF2291"/>
<path opacity="0.2" d="M212.965 99.1668C238.68 99.1668 259.526 78.3208 259.526 52.6059C259.526 26.891 238.68 6.04492 212.965 6.04492C187.25 6.04492 166.404 26.891 166.404 52.6059C166.404 78.3208 187.25 99.1668 212.965 99.1668Z" fill="#3A36DB"/>
<path d="M212.965 93.1219C238.68 93.1219 259.526 72.2759 259.526 46.561C259.526 20.846 238.68 0 212.965 0C187.25 0 166.404 20.846 166.404 46.561C166.404 72.2759 187.25 93.1219 212.965 93.1219Z" fill="#3A36DB"/>
<path d="M212.964 84.4627C233.875 84.4627 250.866 67.472 250.866 46.5604C250.866 25.6489 233.875 8.6582 212.964 8.6582C192.052 8.6582 175.062 25.6489 175.062 46.5604C175.062 67.472 192.052 84.4627 212.964 84.4627Z" fill="white"/>
<path opacity="0.2" d="M175.062 46.5605C175.062 47.5407 175.062 48.5209 175.225 49.5011C176.695 30.0599 193.196 14.5396 212.964 14.5396C232.895 14.5396 249.232 29.8965 250.703 49.5011C250.703 48.5209 250.866 47.5407 250.866 46.5605C250.866 25.6489 233.875 8.6582 212.964 8.6582C192.052 8.6582 175.062 25.6489 175.062 46.5605Z" fill="#3A36DB"/>
<path d="M212.965 50.4815C213.292 50.4815 213.619 50.3182 213.782 50.1548L232.407 25.1589C232.733 24.6688 232.57 24.1787 232.243 23.8519C231.753 23.5252 231.263 23.6886 230.936 24.0153L212.802 48.5211L192.054 39.3723C191.564 39.2089 191.074 39.3722 190.747 39.8624C190.583 40.3525 190.747 40.8426 191.237 41.1693L212.475 50.4815C212.639 50.4815 212.802 50.4815 212.965 50.4815Z" fill="#06152B"/>
<path d="M492.165 301.607L453.269 433.049C451.48 438.862 446.115 442.885 440.154 442.885L282.184 443.332C273.839 443.332 267.132 436.328 267.579 427.982C268.026 420.233 274.435 414.123 282.184 414.123H342.541L390.975 279.401H475.474C487.098 279.401 495.443 290.578 492.165 301.607Z" fill="#99B2C6"/>
<path d="M394.403 425.598C374.567 425.598 358.487 425.331 358.487 425.001C358.487 424.672 374.567 424.405 394.403 424.405C414.238 424.405 430.318 424.672 430.318 425.001C430.318 425.331 414.238 425.598 394.403 425.598Z" fill="#06152B"/>
<path d="M480.541 283.575C480.242 283.426 469.512 314.871 456.547 353.916C443.582 392.812 433.299 424.406 433.597 424.555C433.895 424.704 444.625 393.259 457.59 354.214C470.556 315.318 480.839 283.575 480.541 283.575Z" fill="#06152B"/>
<path d="M365.045 559.724L374.731 559.426V442.886H365.045V559.724Z" fill="#FFD66B"/>
<path d="M414.67 559.127H325.104L365.64 545.118H375.326L414.67 559.127Z" fill="#FFD66B"/>
<path d="M437.324 249.149L422.57 323.216L425.253 378.803L325.553 362.261L329.428 313.678L329.577 273.44L305.136 320.831L286.061 284.021L320.933 220.982C327.341 214.425 334.793 209.507 343.735 206.228C348.056 204.589 352.676 203.695 358.041 203.546C369.516 207.123 380.992 207.123 392.616 203.546C393.957 203.695 395.894 203.844 398.428 204.142C398.577 204.142 398.726 204.142 398.875 204.142C420.037 206.676 436.132 224.261 437.324 245.572V249.149Z" fill="#FF69B4"/>
<path d="M398.279 204.142C398.279 204.142 439.262 204.44 444.329 247.658L445.074 279.401L409.755 279.103L398.279 204.142Z" fill="#FF69B4"/>
<path d="M300.367 259.729C300.367 260.027 332.557 260.325 372.347 260.325C412.138 260.325 444.328 260.027 444.328 259.729C444.328 259.431 412.138 259.133 372.347 259.133C332.557 259.133 300.367 259.431 300.367 259.729Z" fill="white"/>
<path d="M300.367 266.584C300.367 266.882 332.557 267.18 372.347 267.18C412.138 267.18 444.328 266.882 444.328 266.584C444.328 266.286 412.138 265.988 372.347 265.988C332.557 265.988 300.367 266.286 300.367 266.584Z" fill="white"/>
<path d="M302.751 254.067C302.751 254.365 334.494 254.663 373.54 254.663C412.585 254.663 444.328 254.365 444.328 254.067C444.328 253.769 412.585 253.471 373.54 253.471C334.345 253.471 302.751 253.769 302.751 254.067Z" fill="white"/>
<path d="M330.025 320.831C330.323 320.831 330.174 303.246 329.727 281.637C329.279 260.028 328.683 242.442 328.236 242.442C327.938 242.442 328.087 260.028 328.534 281.637C329.13 303.246 329.727 320.831 330.025 320.831Z" fill="#06152B"/>
<path d="M344.032 292.367C344.032 292.367 324.659 293.708 321.231 298.924C317.803 303.991 312.438 318.596 314.376 318.745C316.462 318.894 317.803 317.702 317.803 317.702L323.168 308.313C323.168 308.313 322.274 317.404 325.553 317.553C328.682 317.702 344.479 320.832 344.479 320.832L344.032 292.367Z" fill="#FFBE9D"/>
<path d="M444.925 270.906V320.831C444.329 332.455 433.301 340.801 421.974 338.416L343.884 322.321L344.033 290.28L411.393 303.245L412.288 269.416L444.925 270.906Z" fill="#FF69B4"/>
<path d="M400.365 334.392C400.365 334.392 400.067 334.243 399.322 334.094C398.577 333.945 397.534 333.647 396.341 333.349C393.659 332.753 389.784 332.008 384.866 330.965C374.881 328.878 360.873 326.047 344.181 322.619L344.629 323.066C344.629 313.081 344.629 301.904 344.629 290.131L344.032 290.727C348.503 291.621 353.123 292.515 357.743 293.41C377.415 297.135 395.894 300.712 411.393 303.693L411.989 303.842V303.246C411.542 288.343 411.095 275.973 410.797 267.181C410.648 262.859 410.499 259.58 410.35 257.196C410.35 256.153 410.201 255.258 410.201 254.513C410.201 253.917 410.052 253.619 410.052 253.619C410.052 253.619 410.052 253.917 410.052 254.513C410.052 255.258 410.052 256.004 410.052 257.196C410.052 259.58 410.201 263.008 410.201 267.33C410.35 276.122 410.648 288.492 411.095 303.395L411.691 302.947C396.192 299.967 377.713 296.39 358.041 292.515C353.272 291.621 348.652 290.727 344.33 289.833L343.734 289.684V290.28C343.734 302.053 343.734 313.081 343.734 323.215V323.662L344.181 323.811C360.873 327.09 374.881 329.773 384.866 331.71C389.784 332.604 393.659 333.349 396.341 333.796C397.683 333.945 398.577 334.243 399.471 334.392C400.067 334.392 400.365 334.392 400.365 334.392Z" fill="#06152B"/>
<path d="M355.507 204.142C355.507 204.142 355.358 204.44 355.209 204.887C355.06 205.334 354.762 206.079 354.613 207.122C354.166 209.06 354.017 212.04 354.911 215.468C355.805 218.896 358.19 222.77 361.617 225.9C365.194 229.179 370.261 231.265 375.775 231.265C381.289 231.265 386.505 229.03 389.784 225.602C393.062 222.174 394.553 217.853 395 214.276C395.447 210.699 394.702 207.719 393.957 205.93C393.659 205.036 393.211 204.291 392.913 203.844C392.615 203.397 392.466 203.099 392.466 203.248C392.317 203.248 392.913 204.291 393.51 206.079C394.106 207.868 394.553 210.699 394.106 214.127C393.659 217.554 392.168 221.578 388.89 224.857C385.76 228.135 380.842 230.222 375.626 230.222C370.41 230.222 365.492 228.284 362.065 225.155C358.637 222.174 356.401 218.598 355.358 215.17C354.315 211.891 354.464 208.911 354.613 207.122C355.358 205.185 355.656 204.142 355.507 204.142Z" fill="#263238"/>
<path d="M351.781 324.855C351.93 324.855 351.93 322.918 351.781 319.937C351.632 316.956 351.483 312.784 351.483 308.164C351.483 303.544 351.483 299.371 351.632 296.391C351.781 293.41 351.781 291.473 351.632 291.473C351.483 291.473 351.185 293.261 350.887 296.391C350.589 299.371 350.44 303.693 350.44 308.313C350.44 312.933 350.738 317.106 351.036 320.235C351.334 323.067 351.632 325.004 351.781 324.855Z" fill="#FAFAFA"/>
<path d="M355.806 325.749C355.955 325.749 355.955 323.812 355.955 320.832C355.955 317.404 355.806 313.38 355.806 309.058C355.806 304.737 355.806 300.713 355.806 297.285C355.806 294.305 355.806 292.367 355.657 292.367C355.508 292.367 355.21 294.156 355.061 297.285C354.912 300.266 354.763 304.438 354.763 309.058C354.763 313.678 354.912 317.851 355.21 320.832C355.359 323.961 355.657 325.749 355.806 325.749Z" fill="#FAFAFA"/>
<path d="M277.564 524.105L262.81 564.79L241.798 593.553C240.307 595.639 240.903 598.62 242.99 599.961C244.182 600.706 245.672 600.855 247.013 600.259C255.508 596.682 286.506 583.717 287.4 580.736C288.443 577.16 308.413 533.494 308.413 533.494L277.564 524.105Z" fill="#FF69B4"/>
<g opacity="0.6">
<g opacity="0.6">
<path d="M243.139 599.962L288.593 578.055L287.997 579.694C287.401 581.184 286.357 582.376 285.016 583.122C281.29 585.059 270.858 590.424 247.461 600.26C245.971 600.856 244.331 600.707 243.139 599.962Z" fill="#93079F"/>
</g>
</g>
<g opacity="0.6">
<g opacity="0.6">
<g opacity="0.6">
<path opacity="0.6" d="M285.463 561.81C284.121 562.108 283.227 563.449 283.525 564.791C283.823 566.132 285.165 567.026 286.506 566.728C287.847 566.43 288.89 564.791 288.592 563.598C288.145 562.406 286.506 561.363 285.314 561.959" fill="white"/>
</g>
</g>
</g>
<path d="M259.234 585.952C258.936 585.952 258.936 583.568 256.849 581.482C254.912 579.395 252.527 579.097 252.527 578.799C252.527 578.65 253.123 578.501 254.167 578.799C255.21 579.097 256.402 579.693 257.594 580.885C258.637 582.078 259.234 583.419 259.383 584.462C259.532 585.356 259.383 585.952 259.234 585.952Z" fill="#06152B"/>
<path d="M254.168 590.274C253.87 590.423 253.124 588.485 251.336 587.144C249.548 585.654 247.61 585.356 247.61 585.058C247.61 584.76 249.846 584.76 251.932 586.399C254.019 587.889 254.466 590.125 254.168 590.274Z" fill="#06152B"/>
<path d="M267.282 581.035C266.984 581.184 265.792 578.353 263.109 575.968C260.427 573.435 257.595 572.541 257.744 572.243C257.744 571.945 261.023 572.541 263.854 575.223C266.686 577.906 267.431 581.035 267.282 581.035Z" fill="#06152B"/>
<path d="M272.795 569.112C272.646 569.261 270.709 567.473 267.877 566.28C265.046 564.939 262.512 564.79 262.512 564.641C262.512 564.343 265.195 564.194 268.324 565.535C271.305 566.728 272.944 568.963 272.795 569.112Z" fill="#06152B"/>
<path d="M277.416 557.339C277.267 557.488 275.479 555.252 272.349 554.209C269.219 553.017 266.537 553.762 266.537 553.464C266.537 553.315 267.133 553.017 268.325 552.868C269.518 552.719 271.157 552.719 272.796 553.315C274.435 553.911 275.777 554.805 276.522 555.699C277.267 556.594 277.416 557.19 277.416 557.339Z" fill="#06152B"/>
<path d="M273.242 551.974C273.242 551.974 273.242 551.378 273.838 550.484C274.286 549.59 275.18 548.249 276.67 546.907C277.415 546.311 278.16 545.566 279.501 545.417C280.098 545.417 280.992 545.864 281.29 546.46C281.588 547.205 281.439 547.95 281.29 548.547C280.247 551.08 277.117 552.719 274.136 551.974C271.156 551.229 269.219 548.547 268.92 545.864C268.92 545.268 268.92 544.374 269.517 543.927C270.113 543.331 271.007 543.331 271.603 543.778C272.795 544.374 273.242 545.417 273.689 546.162C274.584 547.801 275.031 549.292 275.18 550.335C275.329 551.378 275.329 551.974 275.329 551.974C275.18 551.974 275.031 549.59 273.093 546.46C272.646 545.715 272.05 544.821 271.156 544.374C270.709 544.225 270.262 544.225 270.113 544.523C269.815 544.821 269.666 545.268 269.815 545.864C270.113 548.099 271.901 550.484 274.435 551.08C276.968 551.676 279.8 550.335 280.545 548.249C280.694 547.801 280.843 547.205 280.694 546.758C280.545 546.311 280.247 546.162 279.8 546.162C278.905 546.162 278.011 546.758 277.266 547.354C274.136 549.739 273.391 552.123 273.242 551.974Z" fill="#06152B"/>
<path d="M215.271 513.524L216.613 546.608C216.613 546.608 183.528 558.978 183.081 565.088L247.163 564.939L247.312 513.375L215.271 513.524Z" fill="#FF69B4"/>
<g opacity="0.6">
<g opacity="0.6">
<path opacity="0.6" d="M236.432 543.777C237.624 544.075 238.519 545.565 238.221 546.758C237.922 547.95 236.581 548.844 235.24 548.546C234.048 548.248 232.856 546.609 233.303 545.416C233.75 544.224 235.389 543.181 236.581 543.926" fill="white"/>
</g>
</g>
<g opacity="0.6">
<path d="M247.164 564.939V559.872L185.466 561.959C185.466 561.959 182.635 563.151 182.933 565.237L247.164 564.939Z" fill="#93079F"/>
</g>
<path d="M215.57 546.31C215.57 546.608 217.209 546.757 218.699 547.8C220.338 548.695 221.084 550.185 221.382 550.036C221.68 550.036 221.233 548.099 219.295 546.906C217.358 545.565 215.42 546.012 215.57 546.31Z" fill="#06152B"/>
<path d="M208.862 548.992C208.862 549.29 210.204 549.887 211.247 551.079C212.29 552.42 212.588 553.761 212.886 553.761C213.184 553.761 213.333 551.973 211.992 550.334C210.651 548.843 208.862 548.694 208.862 548.992Z" fill="#06152B"/>
<path d="M204.988 557.04C205.286 557.04 205.733 555.55 204.839 553.761C204.094 551.973 202.603 551.377 202.454 551.675C202.305 551.973 203.2 552.867 203.945 554.208C204.541 555.699 204.69 557.04 204.988 557.04Z" fill="#06152B"/>
<path d="M216.016 538.709C216.165 539.008 217.656 538.56 219.295 538.709C221.083 538.859 222.425 539.306 222.574 539.157C222.723 538.858 221.381 537.815 219.295 537.666C217.358 537.368 215.867 538.411 216.016 538.709Z" fill="#263238"/>
<g opacity="0.3">
<path opacity="0.3" d="M215.57 520.081L215.719 525.893L247.312 525.595V520.23L215.57 520.081Z" fill="black"/>
</g>
<path d="M215.867 532.004C215.867 532.153 217.059 532.302 219.146 532.004C220.189 531.855 221.232 531.557 222.573 530.961C223.169 530.663 223.766 530.365 224.362 529.918C224.66 529.769 224.958 529.471 225.256 529.173C225.554 528.874 225.852 527.98 225.405 527.533C225.107 527.086 224.511 526.788 224.064 526.788C223.616 526.788 223.169 526.937 222.871 526.937C222.126 527.086 221.53 527.384 220.934 527.682C219.742 528.278 218.699 529.024 217.953 529.62C216.463 530.961 216.016 532.153 216.016 532.302C216.165 532.451 216.91 531.408 218.4 530.216C219.146 529.62 220.189 529.023 221.232 528.576C221.828 528.278 222.424 528.129 223.02 527.98C223.766 527.831 224.213 527.831 224.511 528.129C224.511 528.278 224.511 528.278 224.511 528.427C224.362 528.576 224.064 528.725 223.766 529.024C223.169 529.322 222.573 529.769 222.126 530.067C221.083 530.663 219.891 530.961 218.997 531.259C217.208 531.706 215.867 531.855 215.867 532.004Z" fill="#263238"/>
<path d="M216.314 532.45C216.463 532.45 217.059 531.407 217.208 529.32C217.208 528.277 217.208 527.085 216.761 525.744C216.612 525.148 216.314 524.402 215.867 523.806C215.42 523.21 214.973 522.316 213.78 522.167C213.184 522.167 212.588 522.614 212.439 523.061C212.29 523.508 212.141 523.806 212.141 524.253C211.992 524.999 211.992 525.744 212.141 526.489C212.29 527.83 212.886 529.022 213.482 529.767C214.675 531.407 216.016 531.854 216.016 531.705C216.165 531.556 214.973 530.96 214.078 529.32C213.631 528.575 213.184 527.532 213.035 526.34C213.035 525.744 213.035 525.148 213.035 524.551C213.184 523.806 213.333 523.359 213.631 523.359C213.929 523.359 214.525 523.806 214.824 524.402C215.122 524.999 215.42 525.595 215.569 526.191C216.016 527.383 216.165 528.426 216.165 529.32C216.463 531.258 216.165 532.45 216.314 532.45Z" fill="#263238"/>
<path d="M247.311 355.107C285.164 358.982 335.387 364.198 335.387 364.198L328.531 425.896C328.531 425.896 254.762 406.373 255.21 408.012C255.806 409.652 251.782 539.306 251.782 539.306H207.372L206.477 392.514C206.328 370.308 225.255 352.872 247.311 355.107Z" fill="#06152B"/>
<path d="M426.146 379.995V399.07C426.146 412.036 411.243 425.896 398.277 425.896H388.143C380.245 425.896 367.726 420.083 361.318 415.464L357.444 412.632L311.096 555.997C311.096 555.997 258.191 546.459 258.191 544.82C258.191 543.181 294.107 427.386 310.649 373.587C317.355 351.68 340.901 338.863 362.66 346.315C363.405 346.613 364.15 346.911 364.895 347.209C388.59 356.896 426.146 379.995 426.146 379.995Z" fill="#06152B"/>
<path d="M258.34 544.969C258.34 544.969 258.49 544.82 258.639 544.522C258.788 544.075 258.937 543.628 259.235 543.032C259.682 541.691 260.427 539.753 261.321 537.071C263.109 531.855 265.494 524.404 268.474 515.015C274.436 496.386 282.334 470.455 290.978 441.842C295.3 427.535 299.323 413.825 303.049 401.455C304.837 395.196 306.626 389.384 308.265 383.87C309.159 381.038 309.904 378.505 310.649 375.822C311.395 373.289 312.14 370.755 313.034 368.52C314.822 364.049 317.654 360.621 320.485 357.939C323.317 355.256 325.999 353.319 328.384 351.829C330.619 350.339 332.407 349.146 333.749 348.401C334.345 348.103 334.792 347.805 335.09 347.507C335.388 347.358 335.537 347.209 335.537 347.209C335.537 347.209 335.388 347.209 335.09 347.507C334.643 347.656 334.196 347.954 333.6 348.252C332.258 348.997 330.47 350.041 328.235 351.531C325.85 353.021 323.168 354.958 320.187 357.492C317.356 360.174 314.375 363.602 312.438 368.222C311.395 370.457 310.649 372.991 309.904 375.524C309.159 378.058 308.265 380.74 307.52 383.423C305.88 388.937 304.092 394.898 302.155 401.008C298.429 413.378 294.256 427.088 289.934 441.395C281.291 470.008 273.541 495.79 267.878 514.717C265.047 523.956 262.662 531.557 261.023 536.922C260.278 539.455 259.533 541.542 259.086 542.883C258.937 543.479 258.788 544.075 258.639 544.522C258.34 544.671 258.34 544.969 258.34 544.969Z" fill="#455A64"/>
<path d="M247.163 389.533C246.865 389.682 249.399 393.557 251.485 398.624C253.571 403.691 254.466 408.161 254.913 408.161C255.211 408.161 254.764 403.542 252.528 398.177C250.293 392.812 247.312 389.235 247.163 389.533Z" fill="#455A64"/>
<path d="M238.668 395.493C238.519 395.791 242.394 397.431 246.269 400.56C250.292 403.69 252.826 406.969 253.124 406.82C253.422 406.67 251.187 402.945 247.014 399.666C242.841 396.387 238.668 395.195 238.668 395.493Z" fill="#455A64"/>
<path d="M310.798 556.146C311.096 556.295 323.615 517.845 338.667 470.455C353.867 423.064 365.79 384.465 365.492 384.465C365.194 384.316 352.675 422.766 337.623 470.156C322.571 517.547 310.5 555.997 310.798 556.146Z" fill="#455A64"/>
<path d="M367.577 332.455L216.015 333.946L187.849 254.066L297.981 254.812L323.614 326.643L367.577 327.239V332.455Z" fill="#99B2C6"/>
<path d="M251.783 300.862C248.409 300.862 245.673 298.126 245.673 294.752C245.673 291.377 248.409 288.642 251.783 288.642C255.158 288.642 257.894 291.377 257.894 294.752C257.894 298.126 255.158 300.862 251.783 300.862Z" fill="white"/>
<path d="M379.945 116.364C378.455 110.999 374.58 108.466 369.364 106.677C364.148 104.889 358.038 105.932 353.716 109.211C350.735 111.446 348.5 114.725 345.072 115.917C339.409 117.855 332.703 113.682 327.189 116.215C323.91 117.706 322.122 121.729 322.867 125.157C323.761 128.585 327.189 131.267 330.766 131.118C327.04 132.459 325.848 137.824 328.083 141.103C330.319 144.382 334.789 145.723 338.664 144.978C342.539 144.233 345.967 141.848 348.947 139.166C351.928 136.483 354.61 133.503 357.74 131.118C360.869 128.734 364.744 126.945 368.768 127.094C374.133 127.392 378.753 131.416 381.137 136.185C383.522 140.954 384.118 146.468 384.416 151.833C384.714 157.198 384.863 162.712 386.353 167.779C386.502 168.375 386.8 169.12 387.396 169.269C388.291 169.567 389.036 168.673 389.483 167.779C394.401 158.688 397.53 148.703 398.574 138.42C399.17 132.459 399.021 126.796 395.742 121.878C392.314 116.811 383.969 113.086 379.945 116.364Z" fill="#06152B"/>
<path d="M390.377 141.253L393.059 201.609C393.506 211.892 392.165 227.093 375.921 227.093C361.763 226.05 357.59 212.786 357.292 203.248C357.143 198.777 356.845 194.903 356.845 194.456C356.845 194.456 341.495 193.711 339.558 178.51C338.664 171.207 338.068 156.006 337.77 142.147C337.323 127.393 348.5 114.726 363.105 113.235L364.595 113.086C380.541 112.341 389.93 125.307 390.377 141.253Z" fill="#FFAA8C"/>
<path d="M356.695 194.158C356.695 194.158 366.382 193.86 375.92 186.408C375.92 186.408 372.343 197.883 357.142 198.032L356.695 194.158Z" fill="#EB996E"/>
<path d="M343.281 151.833C343.43 153.025 344.473 153.919 345.666 153.77C346.858 153.77 347.752 152.727 347.752 151.535C347.603 150.342 346.56 149.448 345.367 149.597C344.026 149.746 343.132 150.641 343.281 151.833Z" fill="#263238"/>
<path d="M341.791 149.299C342.089 149.597 343.579 148.106 345.964 147.957C348.348 147.659 350.137 148.703 350.286 148.404C350.435 148.255 350.137 147.808 349.242 147.361C348.497 146.914 347.156 146.467 345.666 146.616C344.176 146.765 342.983 147.51 342.387 148.106C341.791 148.554 341.642 149.15 341.791 149.299Z" fill="#263238"/>
<path d="M366.232 150.193C366.381 151.385 367.425 152.279 368.617 152.13C369.809 152.13 370.703 151.087 370.703 149.895C370.554 148.703 369.511 147.809 368.319 147.958C366.977 148.107 366.083 149.001 366.232 150.193Z" fill="#263238"/>
<path d="M364.743 147.213C365.041 147.511 366.532 146.02 368.916 145.871C371.3 145.573 373.089 146.617 373.238 146.319C373.387 146.17 373.089 145.722 372.195 145.275C371.449 144.828 370.108 144.381 368.618 144.53C367.128 144.679 365.935 145.424 365.339 146.02C364.743 146.617 364.594 147.064 364.743 147.213Z" fill="#263238"/>
<path d="M358.186 165.394C358.186 165.245 356.695 165.096 354.311 165.096C353.715 165.096 353.119 165.096 352.97 164.649C352.821 164.202 352.97 163.605 353.119 162.86C353.566 161.37 354.013 159.731 354.46 158.091C356.248 151.385 357.44 145.871 357.142 145.871C356.844 145.871 355.205 151.236 353.417 157.942C352.97 159.582 352.522 161.221 352.224 162.711C352.075 163.456 351.777 164.202 352.224 165.096C352.373 165.543 352.97 165.841 353.268 165.841C353.715 165.99 354.013 165.841 354.311 165.841C356.695 165.692 358.186 165.543 358.186 165.394Z" fill="#263238"/>
<path d="M365.19 166.288C364.743 166.288 365.041 168.822 363.104 170.908C361.166 172.994 358.335 172.994 358.484 173.292C358.484 173.441 359.08 173.74 360.272 173.59C361.464 173.441 362.955 172.994 364.147 171.802C365.339 170.61 365.786 168.971 365.786 167.927C365.637 166.884 365.339 166.288 365.19 166.288Z" fill="#263238"/>
<path d="M363.104 138.123C363.402 138.719 365.638 138.123 368.469 138.272C371.301 138.272 373.536 138.868 373.834 138.272C373.983 137.973 373.536 137.377 372.493 136.93C371.599 136.483 370.109 136.036 368.469 136.036C366.83 136.036 365.34 136.483 364.446 136.93C363.551 137.377 363.104 137.824 363.104 138.123Z" fill="#263238"/>
<path d="M341.942 142.445C342.389 142.892 344.028 142.146 345.817 141.997C347.754 141.699 349.393 141.997 349.691 141.401C349.84 141.103 349.542 140.656 348.797 140.209C348.052 139.762 346.86 139.464 345.518 139.613C344.177 139.762 343.134 140.358 342.538 140.954C341.942 141.55 341.793 142.146 341.942 142.445Z" fill="#263238"/>
<path d="M390.228 152.579C390.526 152.43 400.362 148.406 401.107 158.838C401.852 169.27 391.271 167.929 391.271 167.631C391.271 167.184 390.228 152.579 390.228 152.579Z" fill="#FFBE9D"/>
<path d="M394.102 163.31C394.102 163.31 394.251 163.459 394.55 163.608C394.848 163.757 395.444 163.757 395.891 163.608C396.934 163.161 397.828 161.372 397.679 159.435C397.679 158.541 397.381 157.647 396.934 156.902C396.487 156.156 396.04 155.709 395.444 155.56C394.848 155.411 394.55 155.858 394.401 156.156C394.251 156.455 394.401 156.604 394.251 156.753C394.251 156.753 393.953 156.604 394.102 156.156C394.102 156.007 394.251 155.709 394.401 155.411C394.699 155.262 394.997 155.113 395.444 155.113C396.189 155.113 397.083 155.858 397.53 156.604C397.977 157.349 398.275 158.392 398.424 159.435C398.573 161.522 397.53 163.608 396.189 164.055C395.444 164.353 394.848 164.055 394.55 163.906C394.251 163.608 394.102 163.459 394.102 163.31Z" fill="#EB996E"/>
<path d="M334.193 139.316C341.048 140.359 348.351 137.825 353.12 132.907C356.547 129.331 358.783 124.562 363.254 122.624C366.234 121.283 369.811 121.581 372.791 122.922C375.772 124.264 378.305 126.35 380.69 128.735C378.604 136.782 381.435 145.128 384.267 152.877C384.565 153.771 385.012 154.665 385.757 155.113C387.098 155.858 388.886 154.964 389.781 153.771C391.271 151.834 391.718 149.151 391.867 146.767C392.314 141.104 391.867 135.292 389.93 129.927C388.141 124.562 384.863 119.644 380.392 116.067C374.729 111.745 367.426 109.957 360.273 110.851C353.12 111.745 346.562 115.024 341.496 119.942C339.111 122.177 336.876 124.86 335.981 127.989" fill="#06152B"/>
<path d="M540.6 477.114C535.235 474.431 528.976 473.984 523.163 475.027C520.034 475.623 516.755 476.517 514.52 478.902C512.433 481.286 511.986 485.459 514.371 487.546C515.861 488.738 517.947 488.887 519.885 488.887C524.505 488.887 529.572 487.993 533.297 490.824C535.384 492.463 536.874 494.997 539.258 495.891C541.792 496.636 544.474 495.146 545.816 492.911C547.157 490.675 547.157 487.844 546.561 485.459C546.71 485.31 545.965 479.796 540.6 477.114Z" fill="#03A89E"/>
<path d="M552.819 453.567C549.541 458.186 543.282 456.696 540.301 453.865C537.321 451.033 536.128 446.86 534.936 442.986C532.403 434.044 529.72 424.655 531.657 415.564C532.254 412.882 533.297 410.199 535.234 408.113C537.171 406.027 540.152 404.834 542.835 405.579C545.964 406.474 548.051 409.603 549.392 412.435C553.565 421.227 555.8 430.765 555.8 440.452C555.949 445.072 555.353 449.841 552.819 453.567Z" fill="#03A89E"/>
<path d="M561.761 460.273C558.184 456.101 557.588 449.99 559.078 444.774C560.718 439.558 564.145 435.088 568.318 431.362C573.087 427.04 578.75 423.761 584.86 421.675C587.245 420.781 589.778 420.185 592.312 420.483C594.845 420.781 597.379 421.973 598.571 424.209C600.359 427.487 598.571 431.511 596.782 434.789C593.653 440.602 589.927 446.116 585.903 451.332C582.625 455.504 578.899 459.677 573.981 461.466C569.063 463.403 563.847 463.105 561.314 459.677" fill="#03A89E"/>
<path d="M553.117 523.609C553.117 523.609 552.968 522.864 552.819 521.523C552.67 520.033 552.521 518.095 552.223 515.711C551.925 513.326 551.627 510.346 550.882 507.216C550.286 504.087 549.093 500.659 547.752 497.231C546.411 493.804 544.623 490.674 542.685 488.29C540.748 485.756 538.363 483.968 536.277 482.925C534.191 481.882 532.253 481.434 530.912 481.285C529.571 481.136 528.826 480.987 528.826 480.987C528.826 480.987 529.571 480.987 530.912 480.987C532.253 481.136 534.34 481.434 536.575 482.478C538.81 483.521 541.344 485.309 543.43 487.843C545.517 490.376 547.305 493.506 548.646 497.082C549.988 500.51 551.031 503.938 551.627 507.216C552.223 510.346 552.521 513.326 552.819 515.711C552.968 518.095 553.117 520.182 553.117 521.523C553.117 522.864 553.117 523.609 553.117 523.609Z" fill="#06152B"/>
<path d="M552.67 519.139C552.67 519.139 552.67 518.841 552.67 518.095C552.67 517.35 552.67 516.456 552.67 515.264C552.67 512.879 552.67 509.303 552.521 504.981C552.372 496.337 551.627 486.948 550.137 473.834C548.795 461.465 547.007 447.009 545.07 437.62C544.623 435.534 544.175 433.596 543.877 431.957C543.43 430.318 543.132 428.827 542.834 427.635C542.536 426.592 542.387 425.698 542.238 424.953C542.089 424.357 542.089 424.059 542.089 424.059C542.089 424.059 542.238 424.357 542.387 424.953C542.536 425.698 542.834 426.592 543.132 427.635C543.43 428.827 543.877 430.169 544.325 431.957C544.772 433.596 545.219 435.534 545.666 437.62C547.603 446.115 549.541 458.037 551.031 471.152C552.521 484.415 553.117 496.337 553.117 505.13C553.117 509.452 553.117 513.028 552.968 515.413C552.968 516.605 552.819 517.499 552.819 518.244C552.67 518.841 552.67 519.139 552.67 519.139Z" fill="#06152B"/>
<path d="M552.67 495.89C552.67 495.89 552.67 494.847 552.67 492.91C552.82 490.972 552.969 488.29 553.565 485.011C554.161 481.733 554.906 477.709 556.098 473.536C556.694 471.599 557.886 466.83 560.867 459.826C564.891 450.288 570.256 442.538 575.025 437.769C576.068 436.428 577.409 435.534 578.303 434.64C578.75 434.193 579.198 433.746 579.794 433.448C580.241 433.149 580.688 432.851 581.135 432.553C582.625 431.51 583.519 430.914 583.668 430.914C583.817 431.063 580.241 433.298 575.621 438.067C571.001 442.985 565.785 450.586 561.761 459.975C559.526 465.042 558.036 469.661 556.843 473.536C555.651 477.709 554.757 481.733 554.161 485.011C553.565 488.29 553.267 490.972 552.969 492.91C552.82 494.996 552.67 495.89 552.67 495.89Z" fill="#06152B"/>
<path d="M575.025 536.873L572.641 568.616H531.807L529.423 536.873H575.025Z" fill="#FFD66B"/>
<path d="M524.503 524.354H578.898V536.873H524.503V524.354Z" fill="#FFD66B"/>
<path d="M573.072 574.605L575.467 568.644H529.268L531.944 574.605H573.072Z" fill="#FFD66B"/>
<path d="M530.316 547.157C530.316 547.157 530.316 547.306 530.465 547.455C530.614 547.604 530.763 547.902 531.062 548.2C531.658 548.945 532.403 549.989 533.446 551.181L533.595 551.33C535.085 549.243 537.023 546.561 539.407 543.282H539.109C540.897 545.816 542.835 548.498 544.921 551.479L545.07 551.777L545.219 551.479C547.306 548.945 549.69 546.263 552.074 543.282H551.627C551.776 543.431 551.925 543.58 552.074 543.729C554.161 546.412 556.247 548.945 558.185 551.33L558.334 551.628L558.483 551.33C560.569 548.349 562.506 545.667 564.295 543.133H563.997C566.828 546.412 569.213 549.094 571.15 551.181L571.299 551.33L571.448 551.181C572.342 549.541 573.087 548.349 573.684 547.455C573.982 547.008 574.131 546.71 574.28 546.412C574.429 546.114 574.429 546.114 574.429 546.114C574.429 546.114 574.28 546.263 574.131 546.412C573.982 546.71 573.684 547.008 573.535 547.306C572.938 548.2 572.193 549.392 571.15 551.032H571.299C569.511 548.945 567.126 546.114 564.295 542.835L564.146 542.686L563.997 542.835C562.208 545.369 560.271 548.051 558.185 550.883H558.632C556.694 548.498 554.608 545.816 552.522 543.282C552.373 543.133 552.224 542.984 552.074 542.835L551.925 542.537L551.776 542.835C549.392 545.667 547.157 548.498 544.921 551.032H545.368C543.282 548.051 541.344 545.369 539.556 542.984L539.407 542.686L539.258 542.984C537.023 546.263 534.936 549.094 533.595 551.181H533.744C532.701 549.989 531.807 548.945 531.211 548.2C530.912 547.902 530.763 547.604 530.614 547.455C530.316 547.306 530.316 547.157 530.316 547.157Z" fill="#030229"/>
<path d="M551.777 536.873C539.184 536.873 528.975 536.74 528.975 536.575C528.975 536.411 539.184 536.277 551.777 536.277C564.37 536.277 574.578 536.411 574.578 536.575C574.578 536.74 564.37 536.873 551.777 536.873Z" fill="#455A64"/>
<path d="M128.835 187.897L157.15 306.524H149.252L121.235 187.897H128.835Z" fill="#06152B"/>
<path d="M139.715 265.987C140.162 268.223 126.75 332.901 126.75 332.901H133.158L143.292 281.635L139.715 265.987Z" fill="#06152B"/>
<path d="M45.2289 418.444H178.162V559.425H45.2289V418.444Z" fill="#99B2C6"/>
<path d="M38.5228 439.01H45.0801V445.567H38.5228V439.01Z" fill="#06152B"/>
<path d="M38.5228 459.725H45.0801V466.282H38.5228V459.725Z" fill="#06152B"/>
<path d="M38.5228 480.589H45.0801V487.146H38.5228V480.589Z" fill="#06152B"/>
<path d="M38.5228 501.303H45.0801V507.86H38.5228V501.303Z" fill="#06152B"/>
<path d="M38.3732 482.377C38.3732 482.377 37.6281 482.228 36.4359 481.93C35.0946 481.781 33.3063 481.334 30.7728 481.334C28.3883 481.334 25.4078 481.781 22.7253 483.42C21.384 484.315 20.0427 485.507 19.2976 487.146C18.4034 488.785 18.1054 490.574 18.2544 492.511C18.4035 494.299 18.9995 496.088 19.8937 497.578C20.7879 499.068 21.9801 500.261 23.3214 501.155C25.8549 503.092 28.6864 503.837 31.0708 504.284C33.4553 504.582 35.3927 504.582 36.7339 504.433C38.0752 504.284 38.8203 504.135 38.8203 504.135C38.8203 504.135 38.0752 504.135 36.7339 504.135C35.3927 504.135 33.4553 504.135 31.2199 503.688C28.9844 503.241 26.3019 502.347 23.7685 500.559C21.384 498.77 19.1486 495.79 18.9996 492.362C18.8506 490.574 19.1486 488.934 19.8937 487.444C20.6389 485.954 21.8311 484.911 23.0233 484.016C25.5568 482.377 28.3883 481.93 30.7728 481.781C33.1572 481.781 34.9456 481.93 36.2868 482.079C37.6281 482.377 38.3732 482.526 38.3732 482.377Z" fill="#06152B"/>
<path d="M40.0137 461.811C40.0137 461.811 39.8647 461.662 39.4176 461.364C38.9705 461.215 38.3744 460.917 37.4802 460.619C35.6919 460.023 33.0094 459.576 29.8798 460.172C29.1346 460.321 28.2405 460.619 27.4953 461.066C26.7502 461.513 26.0051 462.408 25.707 463.451C25.1109 465.388 25.856 467.624 27.1973 469.412C27.9424 470.306 28.8366 471.051 29.8798 471.498C30.923 471.945 32.4132 471.945 33.4564 471.349C34.4996 470.753 35.5428 469.561 35.5428 468.22C35.5428 466.878 34.6487 465.537 33.4564 464.941C32.2642 464.345 30.923 464.345 29.5817 464.494C28.3895 464.792 27.1973 465.388 26.3031 466.133C24.3657 467.624 23.1735 469.859 23.0245 472.094C22.7264 474.33 23.6206 476.416 24.6638 478.056C25.856 479.695 27.3463 480.738 28.6876 481.483C31.6681 482.973 34.3506 483.271 36.139 483.421C37.0331 483.421 37.7783 483.57 38.2254 483.57C38.6724 483.57 38.9705 483.57 38.9705 483.57C38.9705 483.57 37.9273 483.421 36.139 483.271C34.3506 482.973 31.8171 482.675 28.9856 481.185C27.6443 480.44 26.154 479.397 25.1109 477.906C24.0677 476.416 23.3225 474.479 23.6206 472.392C23.9186 470.306 24.9618 468.369 26.7502 467.027C27.6443 466.282 28.6875 465.835 29.7307 465.537C30.7739 465.239 31.9662 465.388 33.0094 465.835C34.0526 466.282 34.6487 467.325 34.6487 468.369C34.6487 469.412 33.9035 470.306 33.0094 470.902C32.1152 471.498 30.923 471.498 30.0288 471.051C28.9856 470.753 28.2405 470.008 27.6443 469.263C26.3031 467.773 25.707 465.686 26.1541 463.898C26.6012 462.109 28.2405 461.215 29.8798 460.917C33.0094 460.172 35.5428 460.619 37.3312 461.066C39.1195 461.364 40.0137 461.96 40.0137 461.811Z" fill="#06152B"/>
<path d="M39.8643 441.543C39.8643 441.543 39.4172 441.394 38.374 441.245C37.4798 441.245 35.9895 441.245 34.3502 441.841C32.7109 442.437 30.9226 443.481 29.4323 445.12C27.942 446.908 26.8988 449.293 26.8988 451.975C26.7498 454.658 27.6439 457.191 28.9852 458.979C30.3264 460.768 32.1148 461.96 33.7541 462.556C35.3934 463.152 36.7347 463.301 37.6288 463.301C38.523 463.301 39.1191 463.152 39.1191 463.152C39.1191 463.003 36.8837 463.45 33.9031 461.96C32.4128 461.215 30.7735 460.172 29.5813 458.383C28.24 456.595 27.4949 454.36 27.6439 451.826C27.793 449.293 28.6871 447.057 30.0284 445.418C31.3696 443.779 33.158 442.735 34.6483 442.139C37.7779 441.245 39.8643 441.692 39.8643 441.543Z" fill="#06152B"/>
<path d="M138.669 343.632C138.669 343.632 138.073 344.526 137.477 346.314C136.881 348.103 136.284 350.785 135.688 354.362C135.092 357.939 134.645 362.26 134.198 367.178C133.751 372.245 133.304 377.908 132.559 384.317C132.41 385.956 132.112 387.446 131.814 389.085C131.516 390.725 131.068 392.364 130.323 393.854C129.578 395.345 128.386 396.686 127.045 397.878C125.704 399.07 124.362 400.263 122.723 401.157C119.593 403.094 115.868 404.435 111.993 404.882C108.118 405.329 103.945 404.733 100.22 402.796C96.494 401.008 93.5134 397.431 92.6192 393.258C92.1722 391.172 92.3212 388.936 93.0663 386.85C93.8114 384.764 95.3018 383.124 97.2391 381.932C99.0275 380.74 101.263 379.995 103.498 379.846C105.734 379.697 108.118 380.293 109.907 381.783C110.801 382.528 111.546 383.273 111.993 384.317C112.44 385.36 112.589 386.403 112.44 387.595C111.993 389.831 110.354 391.768 108.267 392.811C106.181 394.003 103.796 394.45 101.412 394.748C99.0274 395.047 96.643 395.196 94.4076 395.196C89.6386 395.345 85.0188 394.897 80.5479 394.45C71.4572 393.407 62.6646 391.917 54.319 391.917C45.9734 391.768 37.7769 392.96 30.9216 396.388C27.4939 398.027 24.5133 400.263 22.2779 402.945C19.8935 405.628 18.4032 408.757 17.8071 411.887C16.4658 418.295 17.9561 424.256 20.3406 428.727C22.874 433.198 26.3017 436.178 29.1332 438.116C32.1138 440.053 34.6472 441.245 36.4356 441.841C38.2239 442.438 39.1181 442.736 39.1181 442.736C39.1181 442.736 38.8201 442.587 38.373 442.438C37.9259 442.288 37.1807 441.99 36.4356 441.692C34.6472 440.947 32.1138 439.904 29.2822 437.818C26.4507 435.731 23.023 432.751 20.6386 428.429C18.2541 424.107 16.9129 418.146 18.2542 412.036C18.9993 409.055 20.3406 405.926 22.725 403.392C24.9604 400.859 27.941 398.623 31.2196 397.133C37.9259 393.854 45.9734 392.662 54.319 392.811C62.6646 392.96 71.4572 394.45 80.5479 395.345C85.1678 395.792 89.7877 396.239 94.5566 396.09C96.941 396.09 99.3255 395.941 101.71 395.643C104.094 395.345 106.628 394.897 108.714 393.705C110.95 392.513 112.738 390.427 113.185 387.893C113.483 386.701 113.185 385.36 112.738 384.167C112.142 382.975 111.397 382.081 110.354 381.336C108.416 379.846 105.883 379.25 103.498 379.25C101.114 379.399 98.7294 380.144 96.792 381.485C94.8546 382.826 93.2153 384.615 92.3212 386.85C91.427 389.085 91.427 391.47 91.8741 393.556C92.9173 398.027 96.0469 401.604 99.9216 403.541C103.796 405.479 108.118 406.075 111.993 405.628C116.017 405.18 119.742 403.839 123.021 401.902C124.66 400.859 126.151 399.815 127.343 398.474C128.684 397.133 129.876 395.941 130.77 394.301C131.516 392.662 131.963 391.023 132.261 389.383C132.559 387.744 132.857 386.105 133.006 384.615C133.751 378.355 134.198 372.543 134.645 367.476C135.092 362.409 135.539 358.088 135.986 354.66C136.434 351.083 137.03 348.401 137.626 346.612C137.924 345.718 138.073 344.973 138.371 344.675C138.52 343.781 138.669 343.632 138.669 343.632Z" fill="#06152B"/>
<path d="M52.6813 553.463C52.6813 553.463 52.6813 553.314 52.6813 552.867C52.6813 552.42 52.6813 551.824 52.6813 551.079C52.6813 549.44 52.6813 547.204 52.6813 544.075C52.6813 537.964 52.6813 529.023 52.8303 517.697C52.8303 495.044 52.9793 462.705 52.9793 423.958L52.6813 424.256C87.8519 424.256 128.984 424.256 172.947 424.256L172.5 423.809C172.5 471.498 172.5 515.908 172.5 553.314L172.798 553.016C136.733 553.016 106.779 553.165 85.7655 553.165C75.1845 553.165 66.988 553.165 61.3249 553.314C58.4934 553.314 56.407 553.314 54.9167 553.314C53.4264 553.463 52.6813 553.463 52.6813 553.463C52.6813 553.463 53.4264 553.463 54.9167 553.463C56.407 553.463 58.4934 553.463 61.3249 553.463C66.988 553.463 75.1845 553.463 85.6165 553.612C106.629 553.612 136.733 553.761 172.947 553.761H173.245V553.463C173.245 516.057 173.245 471.498 173.245 423.958V423.511H172.798C128.984 423.511 87.852 423.511 52.5323 423.511H52.2342V423.809C52.2342 462.556 52.3832 495.044 52.3832 517.697C52.3832 529.023 52.3832 537.964 52.5323 544.075C52.5323 547.055 52.5323 549.44 52.5323 550.93C52.5323 551.675 52.5323 552.271 52.5323 552.718C52.6813 553.314 52.6813 553.463 52.6813 553.463Z" fill="#06152B"/>
<path d="M87.106 440.502C86.7768 440.502 86.5099 440.235 86.5099 439.906C86.5099 439.576 86.7768 439.31 87.106 439.31C87.4353 439.31 87.7021 439.576 87.7021 439.906C87.7021 440.235 87.4353 440.502 87.106 440.502Z" fill="#263238"/>
<path d="M83.8277 440.501C83.4985 440.501 83.2316 440.234 83.2316 439.905C83.2316 439.575 83.4985 439.309 83.8277 439.309C84.1569 439.309 84.4238 439.575 84.4238 439.905C84.4238 440.234 84.1569 440.501 83.8277 440.501Z" fill="#263238"/>
<path d="M80.399 440.501C80.0698 440.501 79.8029 440.234 79.8029 439.905C79.8029 439.575 80.0698 439.309 80.399 439.309C80.7282 439.309 80.9951 439.575 80.9951 439.905C80.9951 440.234 80.7282 440.501 80.399 440.501Z" fill="#263238"/>
<path d="M76.8785 440.591C76.5493 440.591 76.2824 440.324 76.2824 439.995C76.2824 439.665 76.5493 439.398 76.8785 439.398C77.2077 439.398 77.4746 439.665 77.4746 439.995C77.4746 440.324 77.2077 440.591 76.8785 440.591Z" fill="#263238"/>
<path d="M73.4507 440.591C73.1215 440.591 72.8546 440.324 72.8546 439.995C72.8546 439.665 73.1215 439.398 73.4507 439.398C73.7799 439.398 74.0469 439.665 74.0469 439.995C74.0469 440.324 73.7799 440.591 73.4507 440.591Z" fill="#263238"/>
<path d="M70.1168 440.501C69.7876 440.501 69.5207 440.234 69.5207 439.905C69.5207 439.575 69.7876 439.309 70.1168 439.309C70.446 439.309 70.7129 439.575 70.7129 439.905C70.7129 440.234 70.446 440.501 70.1168 440.501Z" fill="#263238"/>
<path d="M66.8394 440.501C66.5102 440.501 66.2433 440.234 66.2433 439.905C66.2433 439.575 66.5102 439.309 66.8394 439.309C67.1686 439.309 67.4355 439.575 67.4355 439.905C67.4355 440.234 67.1686 440.501 66.8394 440.501Z" fill="#263238"/>
<path d="M68.3296 442.886C68.0004 442.886 67.7335 442.619 67.7335 442.289C67.7335 441.96 68.0004 441.693 68.3296 441.693C68.6589 441.693 68.9258 441.96 68.9258 442.289C68.9258 442.619 68.6589 442.886 68.3296 442.886Z" fill="#263238"/>
<path d="M71.6627 442.975C71.3335 442.975 71.0666 442.709 71.0666 442.379C71.0666 442.05 71.3335 441.783 71.6627 441.783C71.9919 441.783 72.2588 442.05 72.2588 442.379C72.2588 442.709 71.9919 442.975 71.6627 442.975Z" fill="#263238"/>
<path d="M75.2379 442.975C74.9087 442.975 74.6418 442.709 74.6418 442.379C74.6418 442.05 74.9087 441.783 75.2379 441.783C75.5671 441.783 75.834 442.05 75.834 442.379C75.834 442.709 75.5671 442.975 75.2379 442.975Z" fill="#263238"/>
<path d="M78.6665 442.975C78.3373 442.975 78.0704 442.709 78.0704 442.379C78.0704 442.05 78.3373 441.783 78.6665 441.783C78.9958 441.783 79.2627 442.05 79.2627 442.379C79.2627 442.709 78.9958 442.975 78.6665 442.975Z" fill="#263238"/>
<path d="M82.1891 442.886C81.8598 442.886 81.5929 442.619 81.5929 442.289C81.5929 441.96 81.8598 441.693 82.1891 441.693C82.5183 441.693 82.7852 441.96 82.7852 442.289C82.7852 442.619 82.5183 442.886 82.1891 442.886Z" fill="#263238"/>
<path d="M85.7652 442.886C85.436 442.886 85.1691 442.619 85.1691 442.289C85.1691 441.96 85.436 441.693 85.7652 441.693C86.0944 441.693 86.3613 441.96 86.3613 442.289C86.3613 442.619 86.0944 442.886 85.7652 442.886Z" fill="#263238"/>
<path d="M87.106 445.419C86.7768 445.419 86.5099 445.152 86.5099 444.823C86.5099 444.493 86.7768 444.227 87.106 444.227C87.4353 444.227 87.7021 444.493 87.7021 444.823C87.7021 445.152 87.4353 445.419 87.106 445.419Z" fill="#263238"/>
<path d="M83.8277 445.419C83.4985 445.419 83.2316 445.152 83.2316 444.823C83.2316 444.493 83.4985 444.227 83.8277 444.227C84.1569 444.227 84.4238 444.493 84.4238 444.823C84.4238 445.152 84.1569 445.419 83.8277 445.419Z" fill="#263238"/>
<path d="M80.399 445.419C80.0698 445.419 79.8029 445.152 79.8029 444.823C79.8029 444.493 80.0698 444.227 80.399 444.227C80.7282 444.227 80.9951 444.493 80.9951 444.823C80.9951 445.152 80.7282 445.419 80.399 445.419Z" fill="#263238"/>
<path d="M76.8785 445.509C76.5493 445.509 76.2824 445.242 76.2824 444.913C76.2824 444.583 76.5493 444.316 76.8785 444.316C77.2077 444.316 77.4746 444.583 77.4746 444.913C77.4746 445.242 77.2077 445.509 76.8785 445.509Z" fill="#263238"/>
<path d="M73.4507 445.509C73.1215 445.509 72.8546 445.242 72.8546 444.913C72.8546 444.583 73.1215 444.316 73.4507 444.316C73.7799 444.316 74.0469 444.583 74.0469 444.913C74.0469 445.242 73.7799 445.509 73.4507 445.509Z" fill="#263238"/>
<path d="M70.1168 445.419C69.7876 445.419 69.5207 445.152 69.5207 444.823C69.5207 444.493 69.7876 444.227 70.1168 444.227C70.446 444.227 70.7129 444.493 70.7129 444.823C70.7129 445.152 70.446 445.419 70.1168 445.419Z" fill="#263238"/>
<path d="M66.8394 445.419C66.5102 445.419 66.2433 445.152 66.2433 444.823C66.2433 444.493 66.5102 444.227 66.8394 444.227C67.1686 444.227 67.4355 444.493 67.4355 444.823C67.4355 445.152 67.1686 445.419 66.8394 445.419Z" fill="#263238"/>
<path d="M68.3296 447.653C68.0004 447.653 67.7335 447.386 67.7335 447.057C67.7335 446.728 68.0004 446.461 68.3296 446.461C68.6589 446.461 68.9258 446.728 68.9258 447.057C68.9258 447.386 68.6589 447.653 68.3296 447.653Z" fill="#263238"/>
<path d="M71.6627 447.744C71.3335 447.744 71.0666 447.477 71.0666 447.148C71.0666 446.819 71.3335 446.552 71.6627 446.552C71.9919 446.552 72.2588 446.819 72.2588 447.148C72.2588 447.477 71.9919 447.744 71.6627 447.744Z" fill="#263238"/>
<path d="M75.2379 447.744C74.9087 447.744 74.6418 447.477 74.6418 447.148C74.6418 446.819 74.9087 446.552 75.2379 446.552C75.5671 446.552 75.834 446.819 75.834 447.148C75.834 447.477 75.5671 447.744 75.2379 447.744Z" fill="#263238"/>
<path d="M78.6665 447.744C78.3373 447.744 78.0704 447.477 78.0704 447.148C78.0704 446.819 78.3373 446.552 78.6665 446.552C78.9958 446.552 79.2627 446.819 79.2627 447.148C79.2627 447.477 78.9958 447.744 78.6665 447.744Z" fill="#263238"/>
<path d="M82.1891 447.653C81.8598 447.653 81.5929 447.386 81.5929 447.057C81.5929 446.728 81.8598 446.461 82.1891 446.461C82.5183 446.461 82.7852 446.728 82.7852 447.057C82.7852 447.386 82.5183 447.653 82.1891 447.653Z" fill="#263238"/>
<path d="M85.7652 447.653C85.436 447.653 85.1691 447.386 85.1691 447.057C85.1691 446.728 85.436 446.461 85.7652 446.461C86.0944 446.461 86.3613 446.728 86.3613 447.057C86.3613 447.386 86.0944 447.653 85.7652 447.653Z" fill="#263238"/>
<path d="M87.106 450.337C86.7768 450.337 86.5099 450.07 86.5099 449.741C86.5099 449.411 86.7768 449.145 87.106 449.145C87.4353 449.145 87.7021 449.411 87.7021 449.741C87.7021 450.07 87.4353 450.337 87.106 450.337Z" fill="#263238"/>
<path d="M83.8277 450.337C83.4985 450.337 83.2316 450.07 83.2316 449.741C83.2316 449.411 83.4985 449.145 83.8277 449.145C84.1569 449.145 84.4238 449.411 84.4238 449.741C84.4238 450.07 84.1569 450.337 83.8277 450.337Z" fill="#263238"/>
<path d="M80.399 450.337C80.0698 450.337 79.8029 450.07 79.8029 449.741C79.8029 449.411 80.0698 449.145 80.399 449.145C80.7282 449.145 80.9951 449.411 80.9951 449.741C80.9951 450.07 80.7282 450.337 80.399 450.337Z" fill="#263238"/>
<path d="M76.8785 450.428C76.5493 450.428 76.2824 450.161 76.2824 449.831C76.2824 449.502 76.5493 449.235 76.8785 449.235C77.2077 449.235 77.4746 449.502 77.4746 449.831C77.4746 450.161 77.2077 450.428 76.8785 450.428Z" fill="#263238"/>
<path d="M73.4507 450.428C73.1215 450.428 72.8546 450.161 72.8546 449.831C72.8546 449.502 73.1215 449.235 73.4507 449.235C73.7799 449.235 74.0469 449.502 74.0469 449.831C74.0469 450.161 73.7799 450.428 73.4507 450.428Z" fill="#263238"/>
<path d="M70.1168 450.337C69.7876 450.337 69.5207 450.07 69.5207 449.741C69.5207 449.411 69.7876 449.145 70.1168 449.145C70.446 449.145 70.7129 449.411 70.7129 449.741C70.7129 450.07 70.446 450.337 70.1168 450.337Z" fill="#263238"/>
<path d="M66.8394 450.337C66.5102 450.337 66.2433 450.07 66.2433 449.741C66.2433 449.411 66.5102 449.145 66.8394 449.145C67.1686 449.145 67.4355 449.411 67.4355 449.741C67.4355 450.07 67.1686 450.337 66.8394 450.337Z" fill="#263238"/>
<path d="M68.3296 452.572C68.0004 452.572 67.7335 452.305 67.7335 451.976C67.7335 451.647 68.0004 451.38 68.3296 451.38C68.6589 451.38 68.9258 451.647 68.9258 451.976C68.9258 452.305 68.6589 452.572 68.3296 452.572Z" fill="#263238"/>
<path d="M71.6627 452.663C71.3335 452.663 71.0666 452.396 71.0666 452.067C71.0666 451.738 71.3335 451.471 71.6627 451.471C71.9919 451.471 72.2588 451.738 72.2588 452.067C72.2588 452.396 71.9919 452.663 71.6627 452.663Z" fill="#263238"/>
<path d="M75.2379 452.663C74.9087 452.663 74.6418 452.396 74.6418 452.067C74.6418 451.738 74.9087 451.471 75.2379 451.471C75.5671 451.471 75.834 451.738 75.834 452.067C75.834 452.396 75.5671 452.663 75.2379 452.663Z" fill="#263238"/>
<path d="M78.6665 452.663C78.3373 452.663 78.0704 452.396 78.0704 452.067C78.0704 451.738 78.3373 451.471 78.6665 451.471C78.9958 451.471 79.2627 451.738 79.2627 452.067C79.2627 452.396 78.9958 452.663 78.6665 452.663Z" fill="#263238"/>
<path d="M82.1891 452.572C81.8598 452.572 81.5929 452.305 81.5929 451.976C81.5929 451.647 81.8598 451.38 82.1891 451.38C82.5183 451.38 82.7852 451.647 82.7852 451.976C82.7852 452.305 82.5183 452.572 82.1891 452.572Z" fill="#263238"/>
<path d="M85.7652 452.572C85.436 452.572 85.1691 452.305 85.1691 451.976C85.1691 451.647 85.436 451.38 85.7652 451.38C86.0944 451.38 86.3613 451.647 86.3613 451.976C86.3613 452.305 86.0944 452.572 85.7652 452.572Z" fill="#263238"/>
<path d="M571.745 332.903V347.21H492.909V559.426H485.607V347.21L156.105 348.849V559.426H148.952V348.402L98.1335 348.849V331.711L571.745 332.903Z" fill="#3A36DB"/>
<path d="M521.225 344.378L490.078 366.732L492.909 369.415L524.205 345.719L521.225 344.378Z" fill="#FF69B4"/>
<path d="M119.595 346.465L155.809 372.247L153.126 374.78L116.763 347.806L119.595 346.465Z" fill="#FF69B4"/>
<path d="M375.475 327.687H456.993V333.648H375.475V327.687Z" fill="#263238"/>
</svg>
